<svg xmlns="http://www.w3.org/2000/svg" width="45" height="45" viewBox="0 0 45 45">
  <g id="Group_9" data-name="Group 9" transform="translate(11383 -1951)">
    <g id="Group_3" data-name="Group 3" transform="translate(-11383 1951)">
      <ellipse id="Ellipse_4" data-name="Ellipse 4" cx="22.043" cy="22.5" rx="22.043" ry="22.5" fill="#c70a0c"/>
    </g>
    <path id="Path_44" data-name="Path 44" d="M1.705,33.3h0L37.053,19.993,19.311,22.014l.046-.275a6.77,6.77,0,0,0,4.009-4.986c.615-3.707-3.093-7.275-3.093-7.275a14.7,14.7,0,0,0-6.141-5.519C9.612,1.6,2.192.033,2.192.033A56.4,56.4,0,0,1,10,8.218c.006.087,1.89,3.193,1.9,3.29,1.084,5.656.634,3.913.634,3.913A14.558,14.558,0,0,1,12.2,22c-1.029,3.319-.656,3.412-4.743,7.734C5.423,31.885,1.633,32.173.7,32.53c-.637.243.068.282.417.711s.462.09.591.057Z" transform="translate(-11374.772 1954.553) rotate(7)" fill="#fff"/>
  </g>
</svg>
