<svg xmlns="http://www.w3.org/2000/svg" width="50.4" height="46.723" viewBox="0 0 50.4 46.723">
  <g id="Group_16" data-name="Group 16" transform="translate(1599.056 -918.855)">
    <path id="Path_41" data-name="Path 41" d="M0,45.4l.975-.937S13.121,33.192,24.827,21.94C30.785,16.213,36.719,10.1,40.689,6.284a74.637,74.637,0,0,1,5.8-5.365s.873-1.007,1.544-.912c.391.055.46.149.744.472a1.037,1.037,0,0,1,.394.819A11.78,11.78,0,0,1,49.6,5.114a14.791,14.791,0,0,1-.814,4.988,4.906,4.906,0,0,1-2.13,2.825Z" transform="matrix(1, 0.017, -0.017, 1, -1598.264, 918.855)" fill="#538f45"/>
    <path id="Path_42" data-name="Path 42" d="M-1533.3,1428.984h0l.212-.127c43.564-26.172,29.955-18.43,40.441-24.853,4.581-2.806,4.036-.95,4.078-.6.012.1-.006.193,0,.239.01.075-.005.089,0,.218a.226.226,0,0,0,0,.144c-.131,1.183-.437,2.632-.437,2.632l-1.244,3.266s1.257-3.457.635-1.571c-.235.182-.242.49-.322.879-.014.067-.09.119-.1.208a1.246,1.246,0,0,0-.113.293c-.014.063,0,.133-.1.191-.014.009.025-.014,0,0a30.129,30.129,0,0,1-1.849,2.417c-.077.09-.07.047-.515.249-10.484,4.771-40.686,16.415-40.686,16.415" transform="translate(-64.866 -464.725)" fill="#f0d212"/>
    <path id="Path_43" data-name="Path 43" d="M-1502.414,1725.687c35.164-12.557,26.825-10.242,36.168-13.712,3.037-1.128,3.423-.461,3.423-.461s-2.806.49-2.217.291c.872-.294,1.836-.578,2.217-.291a17.622,17.622,0,0,1-2.217,7.974c-1.639,2.613-.327.238-.359.3-1.874,3.386,1.357-3.277,0,0s-6.739,6.831-8.184,7.171a7.767,7.767,0,0,1-1.532,0c-.182,0,.621-.028.378,0-1.235.143,2.33-.034,1.154,0-.15,0,.5.328-5.455.011S-1502.414,1725.687-1502.414,1725.687Z" transform="translate(-94.498 -761.525)" fill="#c12238"/>
  </g>
</svg>
