<svg xmlns="http://www.w3.org/2000/svg" width="49.594" height="43.17" viewBox="0 0 49.594 43.17">
  <g id="Group_14" data-name="Group 14" transform="translate(0 0)">
    <path id="Path_45" data-name="Path 45" d="M-14723.537,2980.648l-12.338.164s3.82-4.163,5.084-6.63.113-2.914-.748-3.893c-1.633-1.854-4.635-4-8.629-8.271-6.061-6.49-13.508-11.978-13.354-13.62s3.91-1.14,12.873-.421c.387.031.395.858.48.865.174.014-.48-.865-.48-.865,1.879,2.062,15.334,14.312,16.875,16.605,1.6,2.4,3.08,4.276,3.627,6.112a3.652,3.652,0,0,1-.475,2.112C-14722.227,2977.178-14723.537,2980.648-14723.537,2980.648Z" transform="translate(14753.523 -2937.643)" fill="#680038"/>
    <path id="Path_46" data-name="Path 46" d="M0,.379S10.13-.049,12.859,0c.841.017,1,.828,1.1.933A8.4,8.4,0,0,0,13.307,0L30.145,22.324a6.3,6.3,0,0,1-.389,1.165c-.836,1.026-2.855,2.8-4.112,4.165a9.573,9.573,0,0,0-.672.737,4.119,4.119,0,0,1-.678.783s-.5.338-.663.222h0c.083.083-.15,0-.15,0C17.824,22.466,0,.379,0,.379Z" transform="matrix(0.995, -0.105, 0.105, 0.995, 9.222, 3.151)" fill="#00ada5"/>
    <path id="Path_47" data-name="Path 47" d="M-14073.551,2947.824c.211-.246.91-.464,1.193-.686-.014.011,7.885.264,8.436.28,1.354.191-6.852,9.445-6.852,9.445l-4.887-5.683a3.9,3.9,0,0,1,.463-1.445C-14074.783,2948.972-14075.432,2950-14073.551,2947.824Z" transform="translate(14113.365 -2935.82)" fill="#680038"/>
  </g>
</svg>
